<svg width="150" height="150" fill="none" xmlns="http://www.w3.org/2000/svg"><circle cx="75" cy="75" r="73" stroke="#0082F4" stroke-width="4"/><path d="m107.762 61.746-4.902-8.492a1.171 1.171 0 0 0-1.452-.5l-7.217 2.913a1.17 1.17 0 1 0 .876 2.17l6.274-2.532 3.885 6.73-5.323 4.162a1.17 1.17 0 0 0-.398 1.266 25.765 25.765 0 0 1 0 15.074 1.17 1.17 0 0 0 .398 1.265l5.323 4.162-3.885 6.73-6.274-2.532a1.17 1.17 0 0 0-1.295.288 25.505 25.505 0 0 1-13.045 7.539c-.474.108-.831.497-.899.978l-.942 6.692h-7.772l-.942-6.692a1.17 1.17 0 0 0-.899-.978 25.505 25.505 0 0 1-13.045-7.539 1.17 1.17 0 0 0-1.295-.288l-6.274 2.533-3.886-6.73 5.324-4.162a1.17 1.17 0 0 0 .398-1.266 25.764 25.764 0 0 1 0-15.074 1.17 1.17 0 0 0-.398-1.265l-5.324-4.162 3.886-6.73 6.274 2.532c.45.182.965.067 1.295-.288a25.505 25.505 0 0 1 13.045-7.539 1.17 1.17 0 0 0 .899-.978l.942-6.692h7.772l.942 6.692c.068.481.425.87.899.978a25.42 25.42 0 0 1 7.75 3.185 1.17 1.17 0 0 0 1.234-1.99 27.768 27.768 0 0 0-7.675-3.285l-.974-6.913A1.17 1.17 0 0 0 79.903 40h-9.806a1.17 1.17 0 0 0-1.159 1.008l-.973 6.913a27.82 27.82 0 0 0-12.891 7.45l-6.481-2.617a1.17 1.17 0 0 0-1.452.5l-4.903 8.492a1.17 1.17 0 0 0 .293 1.508l5.5 4.3a28.124 28.124 0 0 0 0 14.893l-5.5 4.3a1.17 1.17 0 0 0-.293 1.507l4.903 8.492c.291.506.91.719 1.452.5l6.481-2.616a27.82 27.82 0 0 0 12.89 7.45l.974 6.913a1.17 1.17 0 0 0 1.16 1.007h9.805a1.17 1.17 0 0 0 1.159-1.007l.974-6.914a27.81 27.81 0 0 0 12.89-7.45l6.482 2.617c.541.218 1.16.005 1.452-.5l4.902-8.492a1.17 1.17 0 0 0-.292-1.508l-5.501-4.3a28.121 28.121 0 0 0 0-14.893l5.501-4.3a1.17 1.17 0 0 0 .292-1.507Zm-34.68 7.686 5.853 9.949a1.17 1.17 0 0 1-2.018 1.187l-5.852-9.949a1.17 1.17 0 0 1 2.018-1.187Zm-4.57 10.055a1.17 1.17 0 0 1-1.655 0l-3.66-3.66a1.17 1.17 0 0 1 0-1.655l3.66-3.66a1.17 1.17 0 0 1 1.655 1.656L65.68 75l2.832 2.831a1.17 1.17 0 0 1 0 1.656ZM82.17 70.17c.3 0 .6.114.828.343l3.66 3.66a1.17 1.17 0 0 1 0 1.655l-3.66 3.66a1.17 1.17 0 0 1-1.655-1.656L84.173 75l-2.831-2.832c-.74-.74-.206-1.998.827-1.998ZM68.15 56.318a19.898 19.898 0 0 1 6.861-1.226c14.46 0 24.15 15.098 18.042 28.275-4.613 9.954-16.465 14.3-26.42 9.686-12.655-5.865-15.525-22.73-5.403-32.423a1.17 1.17 0 1 1 1.619 1.69c-8.925 8.548-6.404 23.431 4.768 28.61 8.784 4.07 19.241.236 23.312-8.547 4.07-8.783.237-19.241-8.547-23.312a17.443 17.443 0 0 0-13.426-.555 1.171 1.171 0 0 1-.806-2.198Z" fill="#0082F4"/></svg>