<svg width="150" height="150" fill="none" xmlns="http://www.w3.org/2000/svg"><circle cx="75" cy="75" r="73" stroke="#0082F4" stroke-width="4"/><g clip-path="url(#a)" fill="#0082F4"><path d="M107.179 66.063H73.456V45.259a2.77 2.77 0 0 0-2.767-2.768h-8.851a7.507 7.507 0 0 0-5.11-2.003c-1.97 0-3.765.76-5.11 2.003h-8.85A2.771 2.771 0 0 0 40 45.259v37.953a2.771 2.771 0 0 0 2.768 2.767h17.169v20.712a2.825 2.825 0 0 0 2.821 2.821h44.421a2.824 2.824 0 0 0 2.821-2.821V68.883a2.824 2.824 0 0 0-2.821-2.82ZM78.807 69.43H91.13v21.481l-5.58-2.056a1.685 1.685 0 0 0-1.164 0l-5.58 2.056V69.431ZM56.728 43.856a4.175 4.175 0 0 1 4.163 3.942h-8.326a4.175 4.175 0 0 1 4.163-3.942Zm-13.36 2.003h6.142a7.5 7.5 0 0 0-.314 1.939h-3.279a1.684 1.684 0 0 0 0 3.367H67.54a1.684 1.684 0 1 0 0-3.367h-3.28a7.509 7.509 0 0 0-.312-1.94h6.141v36.754h-26.72V45.859Zm63.264 60.285H63.305V85.979h7.383a2.77 2.77 0 0 0 2.768-2.767V69.43h1.983v23.897a1.684 1.684 0 0 0 2.266 1.58l7.264-2.676 7.263 2.676a1.684 1.684 0 0 0 2.266-1.58V69.43h12.134v36.713Z"/><path d="m62.361 62.105-8.203 8.204-3.063-3.064a1.684 1.684 0 0 0-2.382 2.382l4.254 4.254a1.684 1.684 0 0 0 2.382 0l9.394-9.394a1.684 1.684 0 0 0-2.381-2.382Z"/></g><defs><clipPath id="a"><path fill="#fff" transform="translate(40 40)" d="M0 0h70v70H0z"/></clipPath></defs></svg>