<svg width="150" height="150" fill="none" xmlns="http://www.w3.org/2000/svg"><path d="M148 75c0 40.317-32.683 73-73 73S2 115.317 2 75 34.683 2 75 2s73 32.683 73 73Z" stroke="#0082F4" stroke-width="4"/><path d="M89.407 75.253a42.467 42.467 0 0 0 16.708-33.75.823.823 0 0 0-.821-.82 42.344 42.344 0 0 0-26.058 8.961 42.948 42.948 0 0 0-7.67 7.722 4.084 4.084 0 0 1-5.015-.583 5.71 5.71 0 0 0-8.072-.004l-8.125 8.006a.82.82 0 0 0 0 1.168l4.701 4.643a8.08 8.08 0 0 0 9.169 1.515l-.009.03a.82.82 0 0 0 .212.793l2.366 2.367-5.788 1.227a.82.82 0 0 0-.41 1.382l2.912 2.912a7.278 7.278 0 0 0-3.694-1.033 7.202 7.202 0 0 0-5.17 2.126 7.374 7.374 0 0 0-2.203 5.266.82.82 0 0 0 .8.82l.618.016a7.844 7.844 0 0 0-1.401 5.74.818.818 0 0 0 .805.657h2.24a.82.82 0 0 0 0-1.64h-1.494c-.023-1.094.217-3.167 2.204-4.92a.819.819 0 0 0-.522-1.433l-1.553-.039a5.75 5.75 0 0 1 1.662-3.302 5.591 5.591 0 0 1 3.96-1.65h.043c.13 0 .261.007.392.017a3.783 3.783 0 0 0-1.835 2.807l-.47 3.8a.82.82 0 0 0 .914.915l3.801-.47a3.796 3.796 0 0 0 2.807-1.841 5.638 5.638 0 0 1-1.642 4.46.821.821 0 1 0 1.16 1.16 7.307 7.307 0 0 0 2.086-6.08 7.284 7.284 0 0 0-.976-2.843l2.85 2.849a.82.82 0 0 0 1.376-.383l1.397-5.65 2.128 2.127a.82.82 0 0 0 .79.213l.147-.041a8.079 8.079 0 0 0 1.467 9.265l4.643 4.73a.85.85 0 0 0 .584.273.85.85 0 0 0 .583-.273l8.003-8.135a5.726 5.726 0 0 0 0-8.084 4.095 4.095 0 0 1-.6-4.993Zm15.059-32.92a40.804 40.804 0 0 1-.833 7.423 17.047 17.047 0 0 1-6.613-6.584 40.65 40.65 0 0 1 7.446-.84ZM56.207 69.428l-4.11-4.058 7.537-7.427a4.07 4.07 0 0 1 5.756 0 5.73 5.73 0 0 0 4.577 1.641 42.529 42.529 0 0 0-4.999 10.078 6.43 6.43 0 0 1-8.76-.234Zm8.012 15.884a2.162 2.162 0 0 1-1.817 1.559l-2.756.341.342-2.755a2.182 2.182 0 0 1 1.61-1.832 2.167 2.167 0 0 1 2.622 2.688v-.001Zm4.802-1.296-6.197-6.197 5.353-1.135 2.13 2.13-1.286 5.202Zm5.593-3.214-8.69-8.69c.146-.515.303-1.028.47-1.537l.015-.014-.008-.008A41.208 41.208 0 0 1 91.84 44.61a40.047 40.047 0 0 1 3.52-1.056 18.69 18.69 0 0 0 7.894 7.862C99.744 65.418 88.955 76.83 74.614 80.802Zm14.228 6.357-7.422 7.533-4.059-4.11a6.429 6.429 0 0 1-.14-8.863 42.162 42.162 0 0 0 9.984-4.896 5.73 5.73 0 0 0 1.642 4.576 4.076 4.076 0 0 1-.004 5.76Z" fill="#0082F4"/><path d="M61.083 92.62c-.435.103-.88.155-1.327.153h-1.293a.82.82 0 1 0 0 1.641h1.293a7.334 7.334 0 0 0 1.709-.198.82.82 0 1 0-.383-1.596h.001ZM94.094 75.672a.817.817 0 0 0 .523-.189 42.478 42.478 0 0 0 1.723-1.506.82.82 0 1 0-1.113-1.206c-.537.496-1.095.983-1.657 1.45a.82.82 0 0 0 .524 1.451ZM107.642 54.066a.818.818 0 0 0-1.022.547 40.627 40.627 0 0 1-5.672 11.63 41.058 41.058 0 0 1-3.183 3.972.82.82 0 0 0 1.214 1.103 42.663 42.663 0 0 0 6.442-9.335 42.247 42.247 0 0 0 2.769-6.895.823.823 0 0 0-.548-1.022ZM42.87 74.25a.817.817 0 0 0 .58-.24l.628-.629a.82.82 0 0 0-1.16-1.16l-.629.628a.82.82 0 0 0 .58 1.4ZM45.86 71.599l2.807-2.807a.82.82 0 1 0-1.16-1.16L44.7 70.439a.82.82 0 1 0 1.16 1.16ZM43.526 77.075a.82.82 0 0 0 1.16 0l3.299-3.3a.82.82 0 0 0-1.16-1.16l-3.3 3.3a.82.82 0 0 0 0 1.16ZM49.018 72.402a.819.819 0 0 0 .58-.24l1.22-1.22a.819.819 0 0 0-.263-1.343.818.818 0 0 0-.897.183l-1.22 1.22a.82.82 0 0 0 .58 1.4ZM45.66 78.083l-3.645 3.644a.82.82 0 0 0 1.16 1.16l3.645-3.644a.822.822 0 0 0-.579-1.405.82.82 0 0 0-.581.245ZM52.969 71.934a.82.82 0 0 0-1.16 0l-4.27 4.27a.819.819 0 0 0 .263 1.342.82.82 0 0 0 .897-.183l4.27-4.27a.82.82 0 0 0 0-1.16ZM69.107 98.41l-.629.628a.82.82 0 0 0 1.16 1.16l.629-.629a.82.82 0 0 0-1.16-1.16ZM73.696 93.82l-2.807 2.808a.821.821 0 1 0 1.16 1.16l2.807-2.807a.82.82 0 0 0-1.16-1.16ZM69.714 103.264a.82.82 0 0 0 1.16 0l3.3-3.3a.821.821 0 1 0-1.16-1.16l-3.3 3.3a.822.822 0 0 0 0 1.16ZM74.627 98.352a.82.82 0 0 0 1.16 0l1.22-1.22a.82.82 0 0 0-1.16-1.16l-1.22 1.22a.82.82 0 0 0 0 1.16ZM71.849 104.271l-3.645 3.645a.819.819 0 0 0 .579 1.405.812.812 0 0 0 .581-.245l3.645-3.644a.823.823 0 0 0-.579-1.406.832.832 0 0 0-.581.245ZM77.997 98.123l-4.27 4.269a.821.821 0 1 0 1.16 1.161l4.27-4.27a.819.819 0 0 0-.262-1.344.82.82 0 0 0-.898.184ZM101.226 88.167a4.604 4.604 0 0 1-2.89-2.898.82.82 0 0 0-1.556 0 4.599 4.599 0 0 1-2.89 2.898.82.82 0 0 0 0 1.556 4.598 4.598 0 0 1 2.89 2.899.82.82 0 0 0 1.557 0 4.598 4.598 0 0 1 2.889-2.899.82.82 0 0 0 0-1.556Zm-3.668 2.377a6.28 6.28 0 0 0-1.595-1.599 6.28 6.28 0 0 0 1.596-1.598 6.28 6.28 0 0 0 1.595 1.598 6.28 6.28 0 0 0-1.596 1.599ZM43.031 56.774a4.597 4.597 0 0 1 2.89 2.898.82.82 0 0 0 1.556 0 4.598 4.598 0 0 1 2.89-2.898.82.82 0 0 0 0-1.556 4.598 4.598 0 0 1-2.89-2.898.82.82 0 0 0-1.556 0 4.599 4.599 0 0 1-2.89 2.898.82.82 0 0 0 0 1.556Zm3.668-2.376c.43.624.971 1.166 1.595 1.598a6.279 6.279 0 0 0-1.595 1.598 6.279 6.279 0 0 0-1.595-1.598 6.28 6.28 0 0 0 1.595-1.598ZM57.369 48.887a1.503 1.503 0 1 0-.003-3.006 1.503 1.503 0 0 0 .003 3.006ZM94.966 102.344a1.503 1.503 0 0 0 0-3.008 1.503 1.503 0 0 0 0 3.008ZM86.039 54.761a5.997 5.997 0 1 0 4.241 10.24 5.998 5.998 0 0 0-4.241-10.24Zm3.081 9.08a4.358 4.358 0 1 1-6.163-6.164 4.358 4.358 0 0 1 6.163 6.163Z" fill="#0082F4"/></svg>