<svg width="40" height="29" fill="none" xmlns="http://www.w3.org/2000/svg"><path d="M38.205 5.226a4.87 4.87 0 0 0-1.212-2.201 4.792 4.792 0 0 0-2.14-1.291C31.884 1 20 1 20 1S8.117 1 5.146 1.803a4.791 4.791 0 0 0-2.14 1.292 4.87 4.87 0 0 0-1.21 2.201A51.197 51.197 0 0 0 1 14.535c-.02 3.12.247 6.237.794 9.308a4.867 4.867 0 0 0 1.24 2.122 4.789 4.789 0 0 0 2.111 1.232C8.117 28 20 28 20 28s11.883 0 14.854-.803a4.792 4.792 0 0 0 2.14-1.292 4.87 4.87 0 0 0 1.21-2.201 51.2 51.2 0 0 0 .795-9.17c.02-3.12-.247-6.236-.794-9.308Z" fill="#fff" stroke="#fff" stroke-linecap="round" stroke-linejoin="round"/><path d="M15 19.57a.01.01 0 0 0 .015.009l9.278-5.277a.01.01 0 0 0 0-.017l-9.278-5.277a.01.01 0 0 0-.015.01V19.57Z" fill="#C3C3C3"/></svg>